<svg xmlns="http://www.w3.org/2000/svg" viewBox="0 0 455.73 455.73"><title>behance</title><rect width="455.73" height="455.73" style="fill:#0071b9"/><rect x="280.89" y="131.1" width="88.81" height="22.09" style="fill:#fff"/><path d="M405,255.26c0,4-.16,7.82-.48,11.49H290.34c-1.06,25.18,17.32,40.17,38.22,40.17,14.81,0,27.83-7.86,35.33-21.17h37.39c-10.26,37.44-40.4,53-76,53-46.61,0-79.75-37.39-79.75-83.51s35.71-83.51,79.75-83.51S405,209.14,405,255.26Zm-114.7-16.39H360.6c-2.79-20.75-17.45-34-35.13-34S293.14,218.12,290.34,238.87Z" style="fill:#fff"/><path d="M231.84,258.8c2.87,32-2.87,51.92-35.57,68-12.24,6-27.58,7.93-42,7.93H50.68V117h114c14.14,0,57.81,8.39,58.06,50.37.17,29-16.26,42.29-30,48.64C192.76,216,229,226.76,231.84,258.8ZM185.17,268c0-30.57-34.52-29.77-34.52-29.77h-52v59.54h52S185.17,298.58,185.17,268Zm-8.56-88.53c0-25.63-28.94-25-28.94-25h-49v49.93h49S176.61,205.11,176.61,179.48Z" style="fill:#fff"/></svg>