<svg xmlns="http://www.w3.org/2000/svg" viewBox="0 0 455.73 455.73"><title>dribbble</title><rect width="455.73" height="455.73" style="fill:#ed4989"/><path d="M227.87,55.38A172.49,172.49,0,1,0,400.36,227.87,172.49,172.49,0,0,0,227.87,55.38ZM373.38,226a225.2,225.2,0,0,0-100.3-5.5c-4-9.6-8.19-18.79-12.41-27.54,58.92-25.2,80.36-56.53,80.36-56.53h0A144.9,144.9,0,0,1,373.38,226ZM227.87,82.35A145,145,0,0,1,324.4,119h0c-19.62,22.61-46.8,38.74-75.82,50.23-28-52-54.59-82.9-54.59-82.9A145.68,145.68,0,0,1,227.87,82.35Zm-63,14.31s25.44,32.64,53.1,82.93c-66.6,19.15-132.48,18.13-132.48,18.13h0A145.78,145.78,0,0,1,164.85,96.66ZM82.34,227.87c0-1.28,0-2.54,0-3.81h0c62.24.33,110.9-8.21,148.39-20.09,3.87,7.74,7.74,15.78,11.51,24.08A224.06,224.06,0,0,0,119.8,325.34,145,145,0,0,1,82.34,227.87ZM227.87,373.39a144.92,144.92,0,0,1-88.22-29.77A197.64,197.64,0,0,1,252.73,252.4c13.8,34.11,25.31,71.57,30.79,110A144.86,144.86,0,0,1,227.87,373.39Zm80.83-24.5a498.4,498.4,0,0,0-25.79-103.29,198.35,198.35,0,0,1,88.33,7.27A145.51,145.51,0,0,1,308.7,348.89Z" style="fill:#fff"/></svg>