<svg xmlns="http://www.w3.org/2000/svg" viewBox="0 0 455.73 455.73"><title>pinterest</title><rect width="455.73" height="455.73" style="fill:#c9353d"/><path d="M160.6,382c-74.38-31.08-122.79-119.66-92-209.62,30.46-89,129-135.59,217.71-102.65,89,33,133,131.21,98.49,219.22C349.09,380.07,253.35,412.3,181.57,389.57c5.37-13.25,11.47-26.33,15.95-39.94s7.36-27.88,10.73-41c2.9,2.44,5.81,5,8.87,7.44,15.86,12.54,33.8,13.75,52.61,9.23,20-4.8,35.76-16.13,47.46-32.78,19.77-28.16,26.75-60,22-93.55-4.94-34.67-25.47-59.76-57.65-72.39-48.49-19-94.45-12.63-134.27,22.26C116.6,175.64,106.31,221.12,121,256.53c5.11,12.27,13.17,21.91,25.38,27.7,6.19,2.93,8.81,1.74,10.6-4.72.13-.48.29-1,.47-1.42,3.43-9,2.63-16.47-3.47-25.2-11.12-15.91-9.13-34.32-3.77-52a78.48,78.48,0,0,1,75.12-56.1,115.32,115.32,0,0,1,28.15,2.94c27,6.6,44.51,27.52,46.26,55.25,1.4,22.24-2.07,43.85-11.74,64.16-4.79,10.05-11.11,19-20.51,25.33-8.83,5.95-18.5,8.34-29,5.6-14.44-3.77-22.64-17-19-31.41,3.79-15,8.68-29.69,12.4-44.69a59.24,59.24,0,0,0,1.75-19.7c-1.76-17.6-18.39-25.81-33.93-17.22-10.89,6-16.13,16.08-18.56,27.72-2.51,12-1.29,23.81,2.61,35.44a14.79,14.79,0,0,1,.35,7.63c-7.06,30.8-14.62,61.49-21.31,92.37-2,9-1.59,18.53-2.24,27.82C160.49,377.84,160.6,379.64,160.6,382Z" style="fill:#fff"/></svg>