<svg xmlns="http://www.w3.org/2000/svg" viewBox="0 0 455.73 455.73"><title>youtube</title><rect width="455.73" height="455.73" style="fill:#dc472e"/><path d="M263.26,291.73a14.37,14.37,0,0,0-1.14-5.06,5.45,5.45,0,0,0-4.9-3.35,8.53,8.53,0,0,0-6.69,2.51,4.44,4.44,0,0,0-1.12,1.67l0,54v1.33s.46.62.53.7a10.71,10.71,0,0,0,5.71,3.51c3.84.79,6.55-.81,7.3-4.37a13.1,13.1,0,0,0,.3-2.72C263.31,323.85,263.34,307.79,263.26,291.73Zm0,0a14.37,14.37,0,0,0-1.14-5.06,5.45,5.45,0,0,0-4.9-3.35,8.53,8.53,0,0,0-6.69,2.51,4.44,4.44,0,0,0-1.12,1.67l0,54v1.33s.46.62.53.7a10.71,10.71,0,0,0,5.71,3.51c3.84.79,6.55-.81,7.3-4.37a13.1,13.1,0,0,0,.3-2.72C263.31,323.85,263.34,307.79,263.26,291.73Zm60.43-81.39q-95.8-2.05-191.65,0A40.76,40.76,0,0,0,92.16,251.1v99.76A40.77,40.77,0,0,0,132,391.63q95.82,2.05,191.65,0a40.77,40.77,0,0,0,39.89-40.77V251.1A40.77,40.77,0,0,0,323.69,210.34ZM150.8,360H132.38V255.82H113.31V238.4h56.6v17.38H150.8Zm65.92-43.22V360H200.41v-9.88c-.59.63-.92,1-1.23,1.32-3.51,4-7.49,7.26-12.57,9a15.26,15.26,0,0,1-7.64.69,9.4,9.4,0,0,1-7.39-5.88,22.83,22.83,0,0,1-1.69-9.41c0-11.9,0-74.88,0-75.49h16.27c0,.55.09,45.76.1,67.81a18,18,0,0,0,.25,3.6c.6,3,2.87,4.23,5.72,3.19a17.78,17.78,0,0,0,7.88-6.17,2.85,2.85,0,0,0,.31-1.65V270.22l16.32,0S216.72,301.75,216.72,316.73Zm62.05,34.59c-2.18,6.56-7,9.9-13.88,9.83A18.43,18.43,0,0,1,251,354.8l-1.58-1.68v6.82H233.06V238.39H249.4v40a16.42,16.42,0,0,1,1.76-2.79,18.76,18.76,0,0,1,9.41-6c6.27-1.57,13.5.37,16.94,7.7a31.58,31.58,0,0,1,2.6,13.65q0,25.48,0,51A29.81,29.81,0,0,1,278.77,351.32Zm60.35-3.42c-2.83,8.29-8.68,12.89-17.26,14.15-5.32.78-10.59.67-15.58-1.59-6.83-3.08-10.7-8.65-12.36-15.74a47.47,47.47,0,0,1-1.19-10.15c-.13-13.31-.07-26.63,0-39.94,0-7,1.67-13.38,6.44-18.71,5.44-6.09,12.4-8.36,20.35-7.85a28.49,28.49,0,0,1,7.1,1.29c7.73,2.54,11.86,8.33,13.48,16a48.23,48.23,0,0,1,.9,9.06c.13,7.1,0,22.75,0,22.75H309.62v22.43a7.29,7.29,0,1,0,14.57,0V328.09H341S341.25,341.7,339.12,347.9Zm-14.93-57.22a7.29,7.29,0,1,0-14.57,0v12.59h14.57Zm-62.07-4a5.45,5.45,0,0,0-4.9-3.35,8.53,8.53,0,0,0-6.69,2.51,4.44,4.44,0,0,0-1.12,1.67l0,54v1.33s.46.62.53.7a10.71,10.71,0,0,0,5.71,3.51c3.84.79,6.55-.81,7.3-4.37a13.1,13.1,0,0,0,.3-2.72c0-16.07,0-32.13,0-48.19A14.36,14.36,0,0,0,262.12,286.67Z" style="fill:#fff"/><path d="M303.89,95v90.24H287.16l0-9.7c-1.85,1.82-3.43,3.52-5.16,5.05a22.59,22.59,0,0,1-10.63,5.52c-6.25,1.22-11.58-.75-13.57-7.23a23.84,23.84,0,0,1-1.08-6.73V95h16.6v68.82a15.55,15.55,0,0,0,.23,2.73c.5,2.84,2.6,4.17,5.33,3.22a17.84,17.84,0,0,0,8-6.17,3,3,0,0,0,.25-1.68V95Z" style="fill:#fff"/><path d="M165.58,110.67c-3.63-15.3-11.24-47.6-11.24-47.6h-19s14.62,48.49,21.16,70.11a8.62,8.62,0,0,1,.34,2.45v49.58h17.55V135.63a8.62,8.62,0,0,1,.34-2.45c6.54-21.62,21.16-70.11,21.16-70.11h-19s-7.61,32.3-11.24,47.6Z" style="fill:#fff"/><path d="M218.75,92.73h0a23.94,23.94,0,0,0-23.94,23.94v46.86a23.94,23.94,0,0,0,23.94,23.94h0a23.94,23.94,0,0,0,23.94-23.94V116.67A23.94,23.94,0,0,0,218.75,92.73Zm6.91,71.75a6.91,6.91,0,0,1-13.82,0V115.73a6.91,6.91,0,0,1,13.82,0Z" style="fill:#fff"/></svg>