<svg xmlns="http://www.w3.org/2000/svg" xmlns:xlink="http://www.w3.org/1999/xlink" viewBox="0 0 45.2 45.2"><defs><linearGradient id="a" x1="15.32" y1="784.6" x2="21.02" y2="784.6" gradientTransform="translate(0 -752)" gradientUnits="userSpaceOnUse"><stop offset="0" stop-color="#c9c9c9"/><stop offset="1" stop-color="#fff"/></linearGradient></defs><title>logo-purple</title><path d="M22.6,0h0A22.58,22.58,0,0,1,45.2,22.6h0A22.58,22.58,0,0,1,22.6,45.2h0A22.58,22.58,0,0,1,0,22.6H0A22.58,22.58,0,0,1,22.6,0Z" style="fill:#E81123"/><path d="M19.2,29.6l4.9-2.2c2.4-1.1,2.9-2.5,2.9-4,0-2-.3-3.1-1.4-3.9.8.8-.5,1.9-2,2.5l-4.2,1.7c-2.4.8-4.1,2.4-4.1,4.9v5.9C15.3,32.8,16,30.9,19.2,29.6Z" style="fill:#fff"/><path d="M18.7,19.1,27,15.7a3.9,3.9,0,0,0,2.9-4.1V8.7L18,13.5a4.21,4.21,0,0,0-2.8,4s-.3,2.8,1.4,4C15.9,20.8,17.3,19.7,18.7,19.1Z" style="fill:#fff"/><path d="M15.3,34.1v2.4l2.8-1.2c2-.8,2.9-2,2.9-5V28.7l-1.8.8C16.3,30.8,15.4,32.5,15.3,34.1Z" style="fill:url(#a)"/></svg>