<svg xmlns="http://www.w3.org/2000/svg" viewBox="0 0 512 398.2"><title>inbox-icon</title><path fill="#413476" d="M312.46,332.73H199.54a15.45,15.45,0,0,0-15.43,15.43V382.8a15.45,15.45,0,0,0,15.43,15.43H312.46A15.45,15.45,0,0,0,327.9,382.8V348.17A15.45,15.45,0,0,0,312.46,332.73Zm-4.41,45.66H203.95V352.58h104.1Z" transform="translate(0 -56.9)"/><path fill="#413476" d="M507,247l.16-.08-74.4-147.1A35,35,0,0,0,401.38,80.5H387.24V66.82a9.92,9.92,0,0,0-9.92-9.92H134.68a9.92,9.92,0,0,0-9.92,9.92V80.5H110.62A35,35,0,0,0,79.27,99.77L4.86,246.88,5,247a34.54,34.54,0,0,0-5,18V420.35A34.79,34.79,0,0,0,34.75,455.1h442.5A34.79,34.79,0,0,0,512,420.35V264.94A34.54,34.54,0,0,0,507,247ZM387.24,102.55h14.14a13,13,0,0,1,11.67,7.18L474,230.19H432.55V193.12a9.92,9.92,0,0,0-9.92-9.92H410.36V130a9.92,9.92,0,0,0-9.92-9.92H387.24ZM412.71,203v27.14H360.35a22.92,22.92,0,0,0-20.86,13.48l-14.3,31.71a.84.84,0,0,1-.76.49H187.57a.84.84,0,0,1-.76-.49l-14.29-31.71a22.93,22.93,0,0,0-20.87-13.48H99.29V203H412.71ZM144.6,76.75H367.4v43.31H144.6ZM390.51,139.9V183.2h-269V139.9h269ZM98.95,109.73a13,13,0,0,1,11.67-7.18h14.14v17.5H111.57a9.92,9.92,0,0,0-9.92,9.92V183.2H89.37a9.92,9.92,0,0,0-9.92,9.92v37.07H38ZM477.25,433H34.75A12.72,12.72,0,0,1,22,420.35V264.94a12.72,12.72,0,0,1,12.7-12.7h116.9a.84.84,0,0,1,.76.49l14.29,31.71a22.92,22.92,0,0,0,20.87,13.48H324.42a22.92,22.92,0,0,0,20.86-13.48l14.3-31.71h0a.84.84,0,0,1,.76-.49h116.9a12.72,12.72,0,0,1,12.7,12.7V420.35h0A12.71,12.71,0,0,1,477.25,433Z" transform="translate(0 -56.9)"/></svg>