<svg xmlns="http://www.w3.org/2000/svg" viewBox="0 0 319.81 319.71"><title>pin</title><path d="M317.16,159.47c-16.2-16.2-41.2-24.41-74.31-24.41-7,0-14.41.38-22,1.12L141.08,60.84l19-19a9,9,0,0,0,0-12.78L133.69,2.59a9.3,9.3,0,0,0-12.78,0L2.65,120.86a9,9,0,0,0,0,12.78l26.42,26.42a9,9,0,0,0,12.79,0l19-19,75.35,79.73c-3,31.35-1.06,72,23.28,96.36a9,9,0,0,0,12.79,0l66-66,50.58,50.58a9,9,0,0,0,12.79-12.79l-50.58-50.58,66-66A9,9,0,0,0,317.16,159.47ZM166.51,297.33c-14.61-21.17-14.7-53.8-11.86-78.74a9,9,0,0,0-2.41-7.23L67.64,121.85A9,9,0,0,0,61.2,119h-.13a9,9,0,0,0-6.39,2.65L35.46,140.89,21.82,127.26,127.3,21.77l13.64,13.64L121.72,54.63a9,9,0,0,0,.19,13l89.51,84.58a9,9,0,0,0,7.23,2.41,215.32,215.32,0,0,1,24.21-1.45c23.47,0,41.76,4.47,54.54,13.31Z" transform="translate(0 -0.05)" style="fill:#038387"/></svg>