<svg xmlns="http://www.w3.org/2000/svg" viewBox="0 0 475.84 512"><title>rock-and-roll</title><path fill="#d36969" d="M477.2,15.61A53.67,53.67,0,0,0,438.31,0a54.55,54.55,0,0,0-53.49,54.54v85.86a54.4,54.4,0,0,0-64.1,11.18,54.4,54.4,0,0,0-64.1-11.18V55.33a56,56,0,0,0-16.72-39.72,54.11,54.11,0,0,0-76.75.72,54.25,54.25,0,0,0-15.63,38.25l.33,185-36.67-36.67A54.55,54.55,0,0,0,34,280l56.88,56.88c35,35,64.4,69,89.78,103.81A173,173,0,0,0,319.7,512h1c45.51,0,88.56-17.9,121.32-50.47a174.09,174.09,0,0,0,51.9-124.22v-282A56,56,0,0,0,477.2,15.61Zm-13.28,321.7a144.3,144.3,0,0,1-43.05,103c-27.29,27.14-63.15,41.95-101,41.74a141.52,141.52,0,0,1-65.46-16.24,144.56,144.56,0,0,1-49.48-42.7c-26.31-36.1-56.67-71.21-92.81-107.36L55.24,258.83A24.55,24.55,0,0,1,90,224.11l88,88-.46-257.56A24.67,24.67,0,0,1,201.58,30a24,24,0,0,1,17.3,7,25.83,25.83,0,0,1,7.73,18.31V257h30V189.1a24.55,24.55,0,0,1,49.1,0V257h30V189.1a24.55,24.55,0,0,1,49.1,0V257h30V54.55A24.67,24.67,0,0,1,438.89,30a23.88,23.88,0,0,1,17.3,7,25.83,25.83,0,0,1,7.73,18.31Z" transform="translate(-18.08 0)"/></svg>